# xmcd
# 
# Track frame offsets:
#     183
#     22645
#     41373
#     56058
#     73140
#     87570
#     109478
#     126368
#     144075
#     184858
#     203400
# 
# Disc length: 2954
# 
# Revision: 3
# Processed by: cddbd v1.5.2PL0 Copyright (c) Steve Scherf et al.
# Submitted via: fre:ac v1.0.17
# 
DISCID=960b880b
DTITLE=Blue Blot - Bridge To Your Heart
DYEAR=1991
DGENRE=Blues
TTITLE0=Bridge To Your Heart
TTITLE1=September
TTITLE2=Dance To The Blunk
TTITLE3=No No No
TTITLE4=Love Is Gonna Conquer
TTITLE5=What Have I Done
TTITLE6=Take A Walk On The Moon
TTITLE7=Who Is He And What Is He To You
TTITLE8=D.J. Play My Blues
TTITLE9=Lonely Town Lonely Street
TTITLE10=I'll Be Home On Christmas Day
EXTD=YEAR: 1991
EXTT0=
EXTT1=
EXTT2=
EXTT3=
EXTT4=
EXTT5=
EXTT6=
EXTT7=
EXTT8=
EXTT9=
EXTT10=
PLAYORDER=
